<?xml version="1.0" standalone="no"?>
<!DOCTYPE svg PUBLIC "-//W3C//DTD SVG 20010904//EN"
 "http://www.w3.org/TR/2001/REC-SVG-20010904/DTD/svg10.dtd">
<svg version="1.0" xmlns="http://www.w3.org/2000/svg"
 width="62.000000pt" height="66.000000pt" viewBox="0 0 62.000000 66.000000"
 preserveAspectRatio="xMidYMid meet">

<g transform="translate(0.000000,66.000000) scale(0.100000,-0.100000)"
fill="#000000" stroke="none">
<path d="M0 330 l0 -330 310 0 310 0 0 330 0 330 -310 0 -310 0 0 -330z m391
215 c99 -34 169 -130 169 -232 0 -223 -264 -334 -423 -179 -88 85 -100 211
-30 317 61 93 176 131 284 94z"/>
<path d="M285 505 c-5 -2 -22 -6 -38 -9 -48 -11 -105 -72 -123 -132 -14 -49
-14 -59 0 -108 50 -171 281 -193 360 -34 31 61 33 108 7 163 -38 83 -140 142
-206 120z m0 -142 c11 -29 23 -53 26 -53 4 0 15 24 26 53 18 47 23 52 54 55
l34 3 0 -111 0 -110 -37 0 c-39 0 -49 15 -27 37 6 6 9 26 7 44 -3 34 -3 34
-24 -20 -11 -30 -25 -56 -31 -58 -6 -2 -22 24 -36 59 l-26 63 -1 -42 c0 -23 5
-45 10 -48 25 -15 9 -35 -27 -35 l-38 0 0 110 0 111 35 -3 c32 -3 36 -7 55
-55z"/>
</g>
</svg>
